<?xml version="1.0" encoding="UTF-8"?><svg xmlns="http://www.w3.org/2000/svg" xmlns:xlink="http://www.w3.org/1999/xlink" height="417.8" preserveAspectRatio="xMidYMid meet" version="1.0" viewBox="0.0 0.0 402.9 417.8" width="402.9" zoomAndPan="magnify"><g fill="#231f20" id="change1_1"><path d="M400.93 179.74L401.93 179.74 401.93 0 154.04 0 154.04 1 400.93 1z" fill="inherit"/><path d="M400.93 416.81L57.33 416.81 57.33 384.13 56.33 384.13 56.33 417.81 401.93 417.81 401.93 388.74 400.93 388.74z" fill="inherit"/><path d="M367.13,152.24h-74.51l-36.2,36.2v74.51h1l0.35,0.35l0.35-0.35h72.8l36.2-36.2V152.24z M293.04,153.24h0.29 v34.9h-35.19L293.04,153.24z M257.72,261.95h-0.29v-72.8h35.9v37.19L257.72,261.95z M330.23,261.95h-71.1l34.9-34.9h36.19V261.95z M330.23,226.05h-35.9v-36.9h35.9V226.05z M330.52,188.15h-36.19v-34.9h71.1L330.52,188.15z" fill="inherit"/><path d="M399.93 194.59H402.93V374.33000000000004H399.93z" fill="inherit"/><path d="M36.2,273.43L0,309.63v74.51h1l0.35,0.35l0.35-0.35h54.63h1h17.18l36.2-36.2v-74.51H36.2z M36.61,274.43h0.29 v34.9H1.71L36.61,274.43z M1.29,383.13H1v-72.8h35.9v37.19L1.29,383.13z M73.8,383.13H2.7l34.9-34.9H73.8V383.13z M73.8,347.23 H37.9v-36.9h35.9V347.23z M74.09,309.33H37.9v-34.9H109L74.09,309.33z" fill="inherit"/><path d="M1.35,263.3l0.35-0.35h72.8l36.2-36.2V31.06H57.33V1h80.98V0H56.33v31.06H36.2L0,67.26v195.69h1L1.35,263.3z M37.9,32.06h18.43v17.28h1V32.06H109l-34.9,34.9H37.9V32.06z M37.9,67.96h35.9v158.08H37.9V67.96z M73.8,227.05v34.9H2.7 l34.9-34.9H73.8z M36.61,32.06h0.29v34.9H1.71L36.61,32.06z M1,67.96h35.9v158.38L1.29,261.95H1V67.96z" fill="inherit"/><path d="M128.22,309.63v74.51h1l0.35,0.35l0.35-0.35h72.8l36.2-36.2v-74.51h-74.51L128.22,309.63z M129.5,383.13h-0.29 v-72.8h35.9v37.19L129.5,383.13z M166.12,274.43h71.1l-34.9,34.9h-36.19V274.43z M166.12,310.33h35.9v36.9h-35.9V310.33z M202.02,348.23v34.9h-71.1l34.9-34.9H202.02z M165.12,274.43v34.9h-35.19l34.9-34.9H165.12z" fill="inherit"/><path d="M367.13,31.06h-74.51l-36.2,36.2v74.51h1l0.35,0.35l0.35-0.35h72.8l36.2-36.2V31.06z M293.04,32.06h0.29v34.9 h-35.19L293.04,32.06z M257.72,140.76h-0.29v-72.8h35.9v37.19L257.72,140.76z M330.23,140.76h-71.1l34.9-34.9h36.19V140.76z M330.23,104.86h-35.9v-36.9h35.9V104.86z M330.52,66.96h-36.19v-34.9h71.1L330.52,66.96z" fill="inherit"/><path d="M129.58,98.05c0,23.39,19.03,42.42,42.42,42.42c13.01,0,24.67-5.89,32.46-15.15l21.5-21.27l0.12-0.12 c0.75-0.7,1.46-1.43,2.15-2.18c7.23-7.61,11.67-17.88,11.67-29.18c0-23.39-19.03-42.42-42.42-42.42 c-11.17,0-21.34,4.35-28.92,11.43c-0.1,0.09-0.2,0.17-0.3,0.26l-0.37,0.37c-0.32,0.31-0.63,0.63-0.94,0.95l-2.72,2.74l-21.76,21.73 c-0.29,0.28-0.57,0.56-0.85,0.85l-0.96,0.96l0.02,0.02C133.8,77.02,129.58,87.05,129.58,98.05z M172.01,56.63 c22.84,0,41.42,18.58,41.42,41.42c0,4.77-0.82,9.36-2.31,13.63c-4.27,1.49-8.86,2.32-13.63,2.32c-22.84,0-41.42-18.58-41.42-41.42 c0-4.77,0.82-9.36,2.31-13.63C162.65,57.45,167.23,56.63,172.01,56.63z M142.3,69.23l0.91-0.91c3.97-3.85,8.71-6.91,13.96-8.93 c-1.36,4.15-2.11,8.58-2.11,13.19c0,23.39,19.03,42.42,42.42,42.42c4.6,0,9.03-0.75,13.19-2.11 c-5.98,15.53-21.05,26.59-38.66,26.59c-22.84,0-41.42-18.58-41.42-41.42C130.58,86.86,135.06,76.69,142.3,69.23z" fill="inherit"/><path d="M238.92,152.24h-74.51l-36.2,36.2v74.51h1l0.35,0.35l0.35-0.35h72.8l36.2-36.2V152.24z M164.83,153.24h0.29 v34.9h-35.19L164.83,153.24z M129.51,261.95h-0.29v-72.8h35.9v37.19L129.51,261.95z M202.02,261.95h-71.1l34.9-34.9h36.19V261.95z M202.02,226.05h-35.9v-36.9h35.9V226.05z M202.31,188.15h-36.19v-34.9h71.1L202.31,188.15z" fill="inherit"/><path d="M256.43,309.63v74.51h1l0.35,0.35l0.35-0.35h72.8l36.2-36.2v-74.51h-74.51L256.43,309.63z M257.72,383.13 h-0.29v-72.8h35.9v37.19L257.72,383.13z M294.33,274.43h71.1l-34.9,34.9h-36.19V274.43z M294.33,310.33h35.9v36.9h-35.9V310.33z M330.23,348.23v34.9h-71.1l34.9-34.9H330.23z M293.33,274.43v34.9h-35.19l34.9-34.9H293.33z" fill="inherit"/></g></svg>