<?xml version="1.0" encoding="UTF-8" standalone="no"?><svg xmlns="http://www.w3.org/2000/svg" xmlns:xlink="http://www.w3.org/1999/xlink" enable-background="new 0 0 64 64" fill="#d9d9d9" height="63.9" preserveAspectRatio="xMidYMid meet" version="1" viewBox="6.0 -0.0 52.0 63.9" width="52" zoomAndPan="magnify">
 <g id="change1_1"><path d="m12 31h20c0.6 0 1-0.4 1-1s-0.4-1-1-1h-20c-0.6 0-1 0.4-1 1s0.4 1 1 1z" fill="inherit"/></g>
 <g id="change1_2"><path d="m12 36h20c0.6 0 1-0.4 1-1s-0.4-1-1-1h-20c-0.6 0-1 0.4-1 1s0.4 1 1 1z" fill="inherit"/></g>
 <g id="change1_3"><path d="m12 41h20c0.6 0 1-0.4 1-1s-0.4-1-1-1h-20c-0.6 0-1 0.4-1 1s0.4 1 1 1z" fill="inherit"/></g>
 <g id="change1_4"><path d="m43 45h-14c-0.6 0-1 0.4-1 1s0.4 1 1 1h14c0.6 0 1-0.4 1-1s-0.4-1-1-1z" fill="inherit"/></g>
 <g id="change1_5"><path d="m43 50h-14c-0.6 0-1 0.4-1 1s0.4 1 1 1h14c0.6 0 1-0.4 1-1s-0.4-1-1-1z" fill="inherit"/></g>
 <g id="change1_6"><path d="m43 55h-14c-0.6 0-1 0.4-1 1s0.4 1 1 1h14c0.6 0 1-0.4 1-1s-0.4-1-1-1z" fill="inherit"/></g>
 <g id="change1_7"><path d="m43 29h-6c-0.6 0-1 0.4-1 1s0.4 1 1 1h6c0.6 0 1-0.4 1-1s-0.4-1-1-1z" fill="inherit"/></g>
 <g id="change1_8"><path d="m43 34h-6c-0.6 0-1 0.4-1 1s0.4 1 1 1h6c0.6 0 1-0.4 1-1s-0.4-1-1-1z" fill="inherit"/></g>
 <g id="change1_9"><path d="m43 39h-6c-0.6 0-1 0.4-1 1s0.4 1 1 1h6c0.6 0 1-0.4 1-1s-0.4-1-1-1z" fill="inherit"/></g>
 <g id="change1_10"><path d="m11 9h-3.2c-1 0-1.8 0.8-1.8 1.8v51.3c0 1 0.8 1.8 1.8 1.8h39.3c1 0 1.8-0.8 1.8-1.8v-3.1h3.4c0.7 0 1.6-0.6 1.6-2.1v-1.9h2.5c0.4 0 1.5-0.2 1.5-2.2v-51.2c0.1-1.4-0.9-1.6-1.4-1.6h-39.4c-1.4 0-2.1 0.8-2.1 1.6v2.4h-1.9c-1.2 0-2.1 0.7-2.1 1.6zm36 53h-39v-51h39zm-30-60h39v51h-2v-47.4c0-1-0.6-1.6-1.6-1.6h-35.4zm-3.9 4h38.9v51h-3v-46.2c0-1-0.8-1.8-1.8-1.8h-34.2l0.1-3c-0.1 0 0 0 0 0z" fill="inherit"/></g>
 <g id="change1_11"><path d="m43 14h-31c-0.6 0-1 0.4-1 1v10c0 0.6 0.4 1 1 1h31c0.6 0 1-0.4 1-1v-10c0-0.6-0.4-1-1-1zm-1 10h-29v-8h29z" fill="inherit"/></g>
 <g id="change1_12"><path d="m25 45h-13c-0.6 0-1 0.4-1 1v10c0 0.6 0.4 1 1 1h13c0.6 0 1-0.4 1-1v-10c0-0.6-0.4-1-1-1zm-1 10h-11v-8h11z" fill="inherit"/></g>
</svg>